<?xml version="1.0" standalone="no"?>
<!DOCTYPE svg PUBLIC "-//W3C//DTD SVG 20010904//EN"
 "http://www.w3.org/TR/2001/REC-SVG-20010904/DTD/svg10.dtd">
<svg version="1.0" xmlns="http://www.w3.org/2000/svg"
 width="150.000000pt" height="150.000000pt" viewBox="0 0 150.000000 150.000000"
 preserveAspectRatio="xMidYMid meet">
<metadata>
Created by potrace 1.14, written by Peter Selinger 2001-2017
</metadata>
<g transform="translate(0.000000,150.000000) scale(0.100000,-0.100000)"
fill="#000000" stroke="none">
<path d="M97 1387 c-9 -18 -18 -46 -21 -62 -3 -17 -9 -43 -13 -60 -3 -16 -7
-46 -7 -65 -1 -50 34 -54 72 -9 70 84 72 86 145 88 l67 2 1 -73 c4 -305 4
-435 1 -450 -3 -11 -21 -21 -57 -28 -46 -9 -55 -15 -64 -40 -7 -22 -7 -32 2
-37 7 -4 91 -7 187 -8 186 0 204 4 198 47 -2 18 -13 25 -56 34 -30 7 -55 14
-58 16 -3 4 -8 487 -5 525 1 16 133 16 155 0 8 -7 22 -30 29 -51 16 -48 39
-66 65 -50 14 9 17 29 19 125 1 79 -2 116 -10 121 -23 15 -48 8 -65 -19 l-17
-28 -238 2 -238 1 -20 26 c-28 36 -53 33 -72 -7z"/>
<path d="M995 1082 c-179 -16 -313 -130 -359 -305 -30 -114 3 -255 77 -338 39
-44 125 -97 185 -116 36 -11 77 -34 112 -64 128 -108 227 -153 357 -166 59 -5
63 -4 72 18 12 32 -3 57 -37 65 -76 19 -262 122 -262 146 0 4 3 7 8 6 14 -5
98 43 132 75 90 86 122 157 126 285 2 54 -1 102 -7 113 -6 11 -12 29 -14 41
-2 11 -18 42 -35 68 -76 118 -213 185 -355 172z m108 -92 c11 0 80 -69 100
-101 32 -49 46 -120 44 -219 -2 -86 -6 -104 -35 -163 -40 -80 -87 -114 -172
-121 -78 -7 -125 10 -169 61 -38 42 -87 155 -76 172 3 5 1 12 -3 15 -14 9 -6
149 12 204 18 52 60 106 107 136 35 22 106 34 149 24 19 -4 39 -8 43 -8z"/>
</g>
</svg>
